<?xml version="1.0" standalone="no"?><!DOCTYPE svg PUBLIC "-//W3C//DTD SVG 1.1//EN" "http://www.w3.org/Graphics/SVG/1.1/DTD/svg11.dtd"><svg t="1786202521049" class="icon" viewBox="0 0 1024 1024" version="1.1" xmlns="http://www.w3.org/2000/svg" p-id="45784" xmlns:xlink="http://www.w3.org/1999/xlink" width="200" height="200"><path d="M796.672 905.6256H234.1376c-63.8976 0-112.2304-57.8048-100.9664-120.6784l75.3664-419.9936c8.7552-48.896 51.3024-84.4288 100.9664-84.4288h417.1776c50.1248 0 92.928 36.2496 101.1712 85.7088l69.9904 419.9936c10.4448 62.464-37.7856 119.3984-101.1712 119.3984z" fill="#FF5F5F" p-id="45785"></path><path d="M912.9984 783.6672l-69.9904-419.9936a117.57568 117.57568 0 0 0-116.3264-98.56h-30.5664c-2.8672-94.2592-80.384-170.0864-175.36-170.0864S348.3648 170.8544 345.4464 265.1136h-35.9424c-57.1392 0-105.984 40.8576-116.0704 97.0752l-75.3664 419.9936c-6.1952 34.4576 3.1744 69.632 25.6 96.512s55.4496 42.24 90.4704 42.24H796.672c34.7136 0 67.5328-15.2064 90.0096-41.728a117.47328 117.47328 0 0 0 26.3168-95.5392z m-392.192-657.92c78.0288 0 141.7728 62.0544 144.64 139.3664h-289.28c2.8672-77.312 66.6112-139.3664 144.64-139.3664z m342.4256 733.6448a86.9888 86.9888 0 0 1-66.56 30.8224H234.1376c-25.9072 0-50.2784-11.3664-66.8672-31.232a86.9888 86.9888 0 0 1-18.944-71.3728L223.6928 367.616a87.11168 87.11168 0 0 1 85.8624-71.7824h35.84v91.904c0 8.4992 6.8608 15.36 15.36 15.36s15.36-6.8608 15.36-15.36V295.8336H665.6v91.904c0 8.4992 6.8608 15.36 15.36 15.36s15.36-6.8608 15.36-15.36V295.8336h30.4128c42.8032 0 79.0016 30.6688 86.016 72.8576l69.9904 419.9936c4.1984 25.344-2.9184 51.1488-19.5072 70.7072z" fill="#424242" p-id="45786"></path><path d="M673.28 764.672H342.3232c-8.4992 0-15.36-6.8608-15.36-15.36s6.8608-15.36 15.36-15.36h330.9568c8.4992 0 15.36 6.8608 15.36 15.36s-6.912 15.36-15.36 15.36z" fill="#FFFFFF" p-id="45787"></path></svg>